<svg width="180" height="40" viewBox="0 0 180 40" fill="none" xmlns="http://www.w3.org/2000/svg">
<path d="M5.7924 35.3114V6.89648H0V39.9999H11.6129V35.3092L5.7924 35.3114Z" fill="#262628"/>
<path d="M32.2243 26.3158C31.6518 27.4477 30.8583 28.453 29.8906 29.272C28.9191 30.0872 27.8011 30.7089 26.5967 31.104C25.2889 31.5274 23.9214 31.7365 22.5471 31.7229C20.8984 31.7463 19.2628 31.4264 17.7441 30.7835C16.3497 30.1898 15.0932 29.3134 14.0538 28.209C13.0145 27.1049 12.2148 25.7971 11.7053 24.368C11.1488 22.8338 10.8718 21.2119 10.8873 19.5797C10.8752 17.8806 11.1533 16.1919 11.7097 14.5867C12.2177 13.0979 13.0188 11.7262 14.0657 10.553C15.1151 9.40862 16.3934 8.49839 17.8174 7.88177C19.3842 7.20772 21.0754 6.87225 22.7805 6.89785C24.0814 6.89161 25.3763 7.07682 26.6234 7.44768C27.8051 7.79317 28.914 8.35213 29.895 9.0972C30.8525 9.83113 31.6505 10.7529 32.2399 11.8063C32.8704 12.9607 33.2601 14.2316 33.3845 15.5416L16.0482 21.8637C16.1655 22.6784 16.3959 23.4724 16.7328 24.2233C17.0498 24.9443 17.4914 25.6039 18.0375 26.1711C18.5905 26.7343 19.2522 27.1788 19.9822 27.4778C20.8105 27.8108 21.697 27.9742 22.5893 27.9586C24.2356 27.9586 25.6159 27.4393 26.7301 26.4004C27.8498 25.3459 28.5284 23.9052 28.6282 22.369H33.3868C33.2325 23.7424 32.8391 25.0783 32.2243 26.3158ZM26.2766 11.6238C25.2869 10.9497 24.1103 10.6054 22.9138 10.6399C21.8588 10.6116 20.8111 10.8224 19.8489 11.2565C19.0235 11.6476 18.2965 12.2197 17.7218 12.9305C17.1439 13.6579 16.7095 14.4889 16.4416 15.3791C16.149 16.3223 15.9867 17.3013 15.9593 18.2886V18.8384L28.2236 14.3574C27.8969 13.2544 27.2086 12.2938 26.27 11.6305L26.2766 11.6238Z" fill="#262628"/>
<path d="M71.1019 31.0278V17.1115C71.1071 16.3056 71.0133 15.502 70.8219 14.7179C70.6537 14.0122 70.3443 13.3455 69.9114 12.7564C69.4807 12.1837 68.9082 11.7263 68.2474 11.4266C67.4629 11.0906 66.6114 10.93 65.7548 10.9568C64.798 10.9335 63.8497 11.1365 62.9913 11.5485C62.2269 11.9313 61.5615 12.4776 61.045 13.1465C60.5256 13.8327 60.14 14.6055 59.9069 15.4271C59.6531 16.3025 59.5267 17.2081 59.5313 18.1177V31.0278H54.4232V17.1115C54.4289 16.3054 54.3342 15.5016 54.1409 14.7179C53.9727 14.0122 53.6633 13.3455 53.2304 12.7564C52.8001 12.1833 52.2277 11.7258 51.5664 11.4266C50.7856 11.0887 49.937 10.9251 49.0829 10.9479C48.1261 10.9246 47.1778 11.1277 46.3194 11.5397C45.5555 11.922 44.8906 12.4683 44.3754 13.1376C43.8551 13.8232 43.4692 14.5964 43.2373 15.4182C42.9835 16.2937 42.8571 17.1993 42.8617 18.1088V31.0189H37.7422V7.44392H42.8503V11.6394C43.6623 9.99778 44.7631 8.79654 46.1532 8.03568C47.5434 7.27481 49.1755 6.89494 51.0496 6.89649C53.1742 6.89649 54.9392 7.39804 56.3444 8.40137C57.7539 9.41134 58.7364 10.8874 59.1079 12.5525C59.8272 10.6066 60.913 9.17708 62.3653 8.26396C63.8176 7.35083 65.6061 6.89494 67.7306 6.89649C70.3211 6.89649 72.3819 7.64117 73.9132 9.13054C75.4445 10.6199 76.21 12.6146 76.21 15.1146V31.0344L71.1019 31.0278Z" fill="#262628"/>
<path d="M100.188 31.1302V28.3366C99.2894 29.4071 98.1547 30.2608 96.8708 30.8319C95.4612 31.4461 93.9333 31.75 92.393 31.7223C90.7391 31.7424 89.0984 31.4305 87.5703 30.8052C86.1598 30.224 84.8878 29.3581 83.8361 28.2631C82.7819 27.1504 81.9616 25.8424 81.4225 24.4144C80.8393 22.8682 80.549 21.2294 80.5661 19.5795C80.5499 17.8721 80.8321 16.1748 81.4 14.5621C81.9253 13.0733 82.7458 11.7028 83.8136 10.5308C84.8739 9.38306 86.1699 8.4724 87.6154 7.85958C89.1996 7.19935 90.9058 6.87168 92.6251 6.89795C94.0777 6.88682 95.5191 7.15149 96.8708 7.67705C98.145 8.16855 99.2817 8.95389 100.186 9.96761V7.44332H105.243V31.1302H100.188ZM100.188 15.5482C100.194 14.8325 99.9659 14.1342 99.5391 13.5559C99.0974 12.9507 98.5475 12.4302 97.9165 12.02C97.2562 11.5875 96.5377 11.248 95.7823 11.0116C95.0792 10.7801 94.3441 10.6568 93.6031 10.6465C92.1187 10.6465 90.874 10.8907 89.8689 11.3789C88.9022 11.8366 88.0582 12.513 87.4058 13.3534C86.7658 14.2004 86.3058 15.1667 86.0536 16.1937C85.7717 17.2847 85.6309 18.4068 85.6345 19.5327C85.6232 20.6716 85.7796 21.8062 86.0987 22.9007C86.3813 23.8723 86.8629 24.7763 87.5139 25.5563C88.1682 26.3216 88.9936 26.926 89.9253 27.3215C91.0036 27.7692 92.1653 27.9876 93.335 27.9626C94.1751 27.9617 95.0105 27.838 95.8139 27.5953C96.6101 27.3643 97.3571 26.9916 98.0179 26.4957C98.6577 26.018 99.194 25.4185 99.5954 24.7327C100.005 24.013 100.213 23.1985 100.197 22.3731L100.188 15.5482Z" fill="#262628"/>
<path d="M126.992 31.0278V17.1115C126.997 16.2977 126.903 15.4861 126.712 14.6935C126.549 13.9863 126.24 13.3187 125.802 12.7321C125.366 12.1733 124.796 11.7274 124.142 11.4333C123.361 11.0955 122.513 10.932 121.66 10.9546C120.703 10.9311 119.754 11.1341 118.896 11.5463C118.137 11.9247 117.473 12.4621 116.953 13.1199C116.427 13.8021 116.041 14.5763 115.815 15.4005C115.563 16.2844 115.436 17.1979 115.44 18.1155V31.0256H110.323V7.44392H115.426V11.6394C116.238 9.99778 117.338 8.79654 118.727 8.03568C120.117 7.27481 121.748 6.89494 123.621 6.89649C126.211 6.89649 128.272 7.64117 129.802 9.13054C131.332 10.6199 132.097 12.6146 132.097 15.1146V31.0344L126.992 31.0278Z" fill="#262628"/>
<path d="M153.854 31.0256V17.1106C153.859 16.2966 153.764 15.485 153.572 14.6928C153.41 13.9852 153.1 13.3177 152.662 12.7315C152.225 12.1724 151.654 11.7263 150.998 11.4329C150.218 11.0949 149.369 10.9314 148.515 10.9542C147.559 10.9316 146.611 11.1355 145.753 11.5481C144.994 11.9264 144.33 12.4638 143.809 13.1216C143.284 13.8037 142.897 14.5778 142.671 15.4019C142.419 16.2857 142.292 17.1992 142.296 18.1167V31.0256H137.178V7.44387H142.284V11.639C143.098 9.9975 144.198 8.79636 145.587 8.03557C146.975 7.27478 148.606 6.89494 150.482 6.89649C153.074 6.89649 155.136 7.6411 156.665 9.13033C158.194 10.6196 158.956 12.6147 158.952 15.1161V31.0344L153.854 31.0256Z" fill="#262628"/>
<path d="M163.252 32.4136C163.255 32.8119 163.216 33.2096 163.137 33.5996C163.07 33.9414 162.903 34.2549 162.66 34.4997C162.375 34.7664 162.033 34.962 161.661 35.0713C161.112 35.2223 160.545 35.2908 159.977 35.2739H154.597V39.9998H161.48C162.658 39.9998 163.605 39.8378 164.319 39.5137C164.97 39.2396 165.536 38.7908 165.956 38.2152C166.339 37.6681 166.602 37.0445 166.73 36.3856C166.87 35.6844 166.939 34.9701 166.935 34.2544L163.252 32.4136Z" fill="#262628"/>
<path d="M154.597 39.9999V35.1724H9.43555V39.9999H154.597Z" fill="#262628"/>
<path d="M5.80646 0H0V11.0345H5.80646V0Z" fill="#262628"/>
<path d="M175.645 38.6208C174.451 38.6208 173.427 38.1806 172.572 37.3007C171.717 36.4208 171.29 35.3666 171.29 34.1379C171.29 32.9095 171.717 31.8552 172.572 30.9753C173.427 30.0952 174.451 29.6553 175.645 29.6553C176.839 29.6553 177.863 30.0952 178.718 30.9753C179.572 31.8552 180 32.9095 180 34.1379C180 34.9514 179.798 35.6988 179.395 36.3792C179.008 37.06 178.484 37.6079 177.822 38.0231C177.177 38.4214 176.451 38.6208 175.645 38.6208Z" fill="#262628"/>
</svg>
