<svg width="40" height="39" viewBox="0 0 40 39" fill="none" xmlns="http://www.w3.org/2000/svg">
<path d="M20.2316 0.0462646C9.20356 0.0462646 0.231567 9.01827 0.231567 20.0462C0.231567 31.0742 9.20356 40.0462 20.2316 40.0462C31.2596 40.0462 40.2316 31.0742 40.2316 20.0462C40.2316 9.01827 31.2596 0.0462646 20.2316 0.0462646ZM16.2336 28.8722L10.2225 22.874C9.44096 22.0942 9.43938 20.8286 10.2189 20.0468C10.999 19.2646 12.2656 19.2632 13.0474 20.0436L16.2296 23.2202L25.4036 14.0463C26.1844 13.2653 27.4506 13.2653 28.2316 14.0463C29.0124 14.8272 29.0124 16.0934 28.2316 16.8742L16.2336 28.8722Z" fill="#BCE73E"/>
</svg>
