<svg width="632" height="380" viewBox="0 0 632 380" fill="none" xmlns="http://www.w3.org/2000/svg">
<path d="M0 154.353V0H79.4862C98.769 0 112.753 4.18957 121.437 12.5687C130.269 20.9479 134.685 34.3986 134.685 52.9209C134.685 71.4432 130.269 84.8939 121.437 93.2731C112.753 101.652 98.769 105.842 79.4862 105.842H35.3272V154.353H0ZM35.3272 72.7662H77.2783C84.9325 72.7662 90.526 71.2227 94.0587 68.1356C97.5914 64.9016 99.3578 59.83 99.3578 52.9209C99.3578 46.0118 97.5914 41.0137 94.0587 37.9266C90.526 34.6926 84.9325 33.0756 77.2783 33.0756H35.3272V72.7662Z" fill="#262628"/>
<path d="M159.73 142.445C150.456 132.89 145.82 117.749 145.82 97.0216C145.82 76.2943 150.456 61.2265 159.73 51.8184C169.15 42.2632 184.238 37.4856 204.993 37.4856C225.747 37.4856 240.761 42.1897 250.035 51.5979C259.308 61.006 263.945 76.1473 263.945 97.0216C263.945 99.3737 263.798 102.902 263.503 107.606H179.822C182.177 121.13 190.715 127.892 205.434 127.892C216.474 127.892 223.981 124.217 227.955 116.867H262.179C259.382 131.567 253.126 141.857 243.411 147.737C233.696 153.618 220.89 156.558 204.993 156.558C184.238 156.558 169.15 151.854 159.73 142.445ZM230.605 83.3504C227.661 71.8842 219.271 66.1511 205.434 66.1511C191.598 66.1511 183.208 71.8842 180.264 83.3504H230.605Z" fill="#262628"/>
<path d="M281.548 154.353V39.6907H337.851H442H495.154V154.353H462.034V70.5612H442H337.851H314.667V154.353H281.548Z" fill="#262628"/>
<path d="M526.805 142.445C517.532 132.89 512.895 117.749 512.895 97.0216C512.895 76.2943 517.532 61.2265 526.805 51.8184C536.226 42.2632 551.313 37.4856 572.068 37.4856C592.823 37.4856 607.837 42.1897 617.11 51.5979C626.384 61.006 631.02 76.1473 631.02 97.0216C631.02 99.3737 630.873 102.902 630.579 107.606H546.897C549.253 121.13 557.79 127.892 572.51 127.892C583.549 127.892 591.056 124.217 595.031 116.867H629.254C626.457 131.567 620.201 141.857 610.486 147.737C600.771 153.618 587.965 156.558 572.068 156.558C551.313 156.558 536.226 151.854 526.805 142.445ZM597.68 83.3504C594.736 71.8842 586.346 66.1511 572.51 66.1511C558.673 66.1511 550.283 71.8842 547.339 83.3504H597.68Z" fill="#262628"/>
<path d="M113.228 241.083H73.4844V324.874H40.3652V241.083H0.622038V210.212H113.228V241.083Z" fill="#262628"/>
<path d="M155.239 324.874H126.536V210.212H159.655V271.292L210.438 210.212H239.141V324.874H206.022V263.795L155.239 324.874Z" fill="#262628"/>
<path d="M365.072 241.083H325.329V324.874H292.209V241.083H252.466V210.212H365.072V241.083Z" fill="#262628"/>
<path d="M388.095 222.119C397.515 212.711 412.677 208.007 433.579 208.007C454.481 208.007 469.642 212.711 479.062 222.119C488.483 231.528 493.193 246.669 493.193 267.543C493.193 288.417 488.483 303.559 479.062 312.967C469.642 322.375 454.481 327.079 433.579 327.079C412.677 327.079 397.515 322.375 388.095 312.967C378.674 303.559 373.964 288.417 373.964 267.543C373.964 246.669 378.674 231.528 388.095 222.119ZM407.083 267.543C407.083 277.539 409.144 284.816 413.266 289.373C417.534 293.93 424.305 296.209 433.579 296.209C442.852 296.209 449.549 293.93 453.671 289.373C457.94 284.816 460.074 277.539 460.074 267.543C460.074 257.4 457.94 250.123 453.671 245.713C449.549 241.156 442.852 238.878 433.579 238.878C424.305 238.878 417.534 241.156 413.266 245.713C409.144 250.123 407.083 257.4 407.083 267.543Z" fill="#262628"/>
<path d="M510.771 380V210.212H543.89V220.576C551.839 212.197 563.982 208.007 580.321 208.007C597.69 208.007 610.276 212.711 618.077 222.119C626.026 231.528 630 246.669 630 267.543C630 288.417 626.026 303.559 618.077 312.967C610.276 322.375 597.69 327.079 580.321 327.079C563.982 327.079 551.839 322.89 543.89 314.51V380H510.771ZM550.514 289.593C554.782 294.004 561.48 296.209 570.606 296.209C579.732 296.209 586.356 294.004 590.478 289.593C594.746 285.036 596.881 277.686 596.881 267.543C596.881 257.547 594.746 250.27 590.478 245.713C586.356 241.156 579.732 238.878 570.606 238.878C561.48 238.878 554.782 241.156 550.514 245.713C546.392 250.27 544.332 257.547 544.332 267.543C544.332 277.686 546.392 285.036 550.514 289.593Z" fill="#262628"/>
</svg>
